# xmcd
#
# Track frame offsets: 
#        150
#        16102
#        27614
#        37475
#        54943
#        68374
#        78733
#        90231
#        113856
#        127259
#        135253
#        147409
#        161937
#
# Disc length: 2380 seconds
#
# Revision: 0
# Processed by: cddbd v1.4PL0 Copyright (c) Steve Scherf et al.
# Submitted via: ExactAudioCopy v0.95a4
#
DISCID=b2094a0d
DTITLE=The Resophonics - Diamonds In The Ground
DYEAR=2003
DGENRE=Bluegrass
TTITLE0=Muddy Ground
TTITLE1=Old Cold Heart
TTITLE2=Full Pull
TTITLE3=Sometime Silver
TTITLE4=Little Hazel Jane
TTITLE5=House On Fire
TTITLE6=Desert Satellite
TTITLE7=Dream Of The Angels
TTITLE8=Push On
TTITLE9=Grob's Attack
TTITLE10=Road
TTITLE11=Lay Your Body Down
TTITLE12=Joy Comes Back
EXTD=
EXTT0=
EXTT1=
EXTT2=
EXTT3=
EXTT4=
EXTT5=
EXTT6=
EXTT7=
EXTT8=
EXTT9=
EXTT10=
EXTT11=
EXTT12=
PLAYORDER=
